# xmcd CD database file
#
# Track frame offsets:
#	150
#	21375
#	48900
#	70125
#
# Disc length: 1297 seconds
#
# Revision: 0
# Processed by: cddbd v1.5PL3 Copyright (c) Steve Scherf et al.
# Submitted via: CDex 1.51
#
DISCID=2f050f04
DTITLE=帝国歌劇団 - シングル
DYEAR=2000
DGENRE=Game
TTITLE0=いま嫁ぐ日に
TTITLE1=ふたりに乾杯！
TTITLE2=いま嫁ぐ日に （オリジナル・カラオケ）
TTITLE3=ふたりに乾杯！ （オリジナル・カラオケ）
EXTD=YEAR: 2000
EXTT0=
EXTT1=
EXTT2=
EXTT3=
PLAYORDER=
